<svg data-name="Iconly/Light-outline/Filter" xmlns="http://www.w3.org/2000/svg" width="20" height="20" viewBox="0 0 20 20">
    <path data-name="Filter" d="M10.4 12.738a3.136 3.136 0 1 1 3.135 3.1 3.118 3.118 0 0 1-3.135-3.1zm1.471 0a1.665 1.665 0 1 0 1.664-1.643 1.656 1.656 0 0 0-1.669 1.643zm-11.135.726a.726.726 0 1 1 0-1.451h6.028a.726.726 0 1 1 0 1.451zM0 3.095A3.118 3.118 0 0 1 3.135 0a3.119 3.119 0 0 1 3.136 3.095 3.119 3.119 0 0 1-3.136 3.1A3.119 3.119 0 0 1 0 3.095zm1.471 0a1.665 1.665 0 1 0 1.664-1.644 1.656 1.656 0 0 0-1.664 1.644zM9.9 3.82a.726.726 0 1 1 0-1.451h6.029a.726.726 0 1 1 0 1.451z" style="fill:#d6d5dd" transform="translate(1.667 2.083)"/>
</svg>
